HIERARCHY
ROOT Hips
{
	OFFSET 0.000000 0.000000 0.000000
	CHANNELS 6 Xposition Yposition Zposition Xrotation Yrotation Zrotation
	JOINT LeftUpLeg_virtual
	{
		OFFSET 0.000000 0.000000 0.000000
		CHANNELS 3 Xrotation Yrotation Zrotation
		JOINT LeftUpLeg
		{
			OFFSET 15.427100 -6.655098 0.678600
			CHANNELS 3 Xrotation Yrotation Zrotation
			JOINT LeftLeg
			{
				OFFSET 4.081073 -39.591068 13.024000
				CHANNELS 3 Xrotation Yrotation Zrotation
				JOINT LeftFoot
				{
					OFFSET -4.081074 -37.707932 -15.979700
					CHANNELS 3 Xrotation Yrotation Zrotation
					JOINT LeftToeBase
					{
						OFFSET 5.346399 -15.068900 20.645000
						CHANNELS 3 Xrotation Yrotation Zrotation
						JOINT LeftToe_End
						{
							OFFSET 2.754700 0.931300 11.300900
							CHANNELS 3 Xrotation Yrotation Zrotation
							End Site
							{
								OFFSET 0 0 0
							}
						}
					}
				}
			}
		}
	}
	JOINT RightUpLeg_virtual
	{
		OFFSET 0.000000 0.000000 0.000000
		CHANNELS 3 Xrotation Yrotation Zrotation
		JOINT RightUpLeg
		{
			OFFSET -15.569500 -6.655098 0.678600
			CHANNELS 3 Xrotation Yrotation Zrotation
			JOINT RightLeg
			{
				OFFSET -4.081825 -39.591045 13.023800
				CHANNELS 3 Xrotation Yrotation Zrotation
				JOINT RightFoot
				{
					OFFSET 4.081824 -37.707954 -15.979600
					CHANNELS 3 Xrotation Yrotation Zrotation
					JOINT RightToeBase
					{
						OFFSET -5.346400 -15.068900 20.645000
						CHANNELS 3 Xrotation Yrotation Zrotation
						JOINT RightToe_End
						{
							OFFSET -2.754700 0.931300 11.300900
							CHANNELS 3 Xrotation Yrotation Zrotation
							End Site
							{
								OFFSET 0 0 0
							}
						}
					}
				}
			}
		}
	}
	JOINT Spine_virtual
	{
		OFFSET 0.000000 0.000000 0.000000
		CHANNELS 3 Xrotation Yrotation Zrotation
		JOINT Spine
		{
			OFFSET -0.279200 12.230698 -2.892100
			CHANNELS 3 Xrotation Yrotation Zrotation
			JOINT Spine1
			{
				OFFSET -0.232667 10.192268 -1.242267
				CHANNELS 3 Xrotation Yrotation Zrotation
				JOINT Spine1_split
				{
					OFFSET -0.232667 10.192268 -1.242267
					CHANNELS 3 Xrotation Yrotation Zrotation
					JOINT Spine2
					{
						OFFSET -0.232667 10.192268 -1.242267
						CHANNELS 3 Xrotation Yrotation Zrotation
						JOINT Neck_virtual
						{
							OFFSET 0.000000 0.000000 0.000000
							CHANNELS 3 Xrotation Yrotation Zrotation
							JOINT Neck
							{
								OFFSET -0.418800 17.814194 8.416900
								CHANNELS 3 Xrotation Yrotation Zrotation
								JOINT Head
								{
									OFFSET 0.000000 7.031097 3.806800
									CHANNELS 3 Xrotation Yrotation Zrotation
									JOINT HeadTop_End
									{
										OFFSET 0.000000 24.646606 12.978600
										CHANNELS 3 Xrotation Yrotation Zrotation
										End Site
										{
											OFFSET 0 0 0
										}
									}
								}
							}
						}
						JOINT LeftShoulder_virtual
						{
							OFFSET 0.000000 0.000000 0.000000
							CHANNELS 3 Xrotation Yrotation Zrotation
							JOINT LeftShoulder
							{
								OFFSET 8.476499 7.247704 -3.868750
								CHANNELS 3 Xrotation Yrotation Zrotation
								JOINT LeftShoulder_split
								{
									OFFSET 8.476499 7.247704 -3.868750
									CHANNELS 3 Xrotation Yrotation Zrotation
									JOINT LeftArm
									{
										OFFSET 9.308998 -2.777710 0.208600
										CHANNELS 3 Xrotation Yrotation Zrotation
										JOINT LeftForeArm
										{
											OFFSET 29.972298 0.000000 0.000000
											CHANNELS 3 Xrotation Yrotation Zrotation
											JOINT LeftHand
											{
												OFFSET 26.026505 0.000000 0.000000
												CHANNELS 3 Xrotation Yrotation Zrotation
												End Site
												{
													OFFSET 0 0 0
												}
											}
										}
									}
								}
							}
						}
						JOINT RightShoulder_virtual
						{
							OFFSET 0.000000 0.000000 0.000000
							CHANNELS 3 Xrotation Yrotation Zrotation
							JOINT RightShoulder
							{
								OFFSET -7.570500 7.247704 -3.868750
								CHANNELS 3 Xrotation Yrotation Zrotation
								JOINT RightShoulder_split
								{
									OFFSET -7.570500 7.247704 -3.868750
									CHANNELS 3 Xrotation Yrotation Zrotation
									JOINT RightArm
									{
										OFFSET -9.308998 -2.777710 0.208500
										CHANNELS 3 Xrotation Yrotation Zrotation
										JOINT RightForeArm
										{
											OFFSET -29.972300 0.000000 0.000000
											CHANNELS 3 Xrotation Yrotation Zrotation
											JOINT RightHand
											{
												OFFSET -26.026505 0.000000 0.000000
												CHANNELS 3 Xrotation Yrotation Zrotation
												End Site
												{
													OFFSET 0 0 0
												}
											}
										}
									}
								}
							}
						}
					}
				}
			}
		}
	}
}
MOTION
Frames: 4
Frame Time: 0.03333333
10.501155 61.331131 55.844513 0.000000 0.000000 0.000000 -11.821963 -37.568161 -7.823934 -54.605399 -14.363208 27.244861 64.613753 -7.784110 6.622980 7.564196 3.195372 -31.430881 -4.217965 -4.175742 3.016029 0.000000 0.000000 0.000000 -12.349115 -36.579946 -8.107088 -30.121722 -11.308316 -45.700195 71.246140 26.825179 -10.070461 -0.800881 -31.166204 33.241933 -15.620357 17.653307 -21.204652 0.000000 0.000000 0.000000 -9.888499 -35.714301 -8.467484 17.133323 7.765879 -8.549048 3.386614 -0.943967 1.361815 0.237404 -1.266869 0.165840 0.000000 0.000000 0.000000 10.462015 0.601188 2.778061 4.327599 16.866426 5.697287 0.680179 7.529940 -31.155054 0.000000 0.000000 0.000000 7.102396 -1.117445 1.710508 0.319826 -3.773873 -5.387981 7.148865 -4.554721 2.058068 -67.707201 13.216244 -35.694835 173.534220 -64.438825 168.197998 0.000000 0.000000 0.000000 6.043056 -1.904870 1.378360 -1.698473 8.472043 -9.360214 -13.594116 -3.130112 -5.164868 -40.482333 21.327870 86.513778 -141.412865 70.197795 142.349284 0.000000 0.000000 0.000000 
9.845426 62.780037 52.650795 0.000000 0.000000 0.000000 -11.428079 -37.973256 -6.805640 -53.768581 -12.520498 26.619078 59.066718 -6.686198 8.461852 11.299409 2.987794 -34.157544 -4.553901 -4.661007 3.425058 0.000000 0.000000 0.000000 -13.202126 -37.379296 -7.478214 -25.236432 -13.496748 -42.745745 70.463606 25.511059 -12.490358 -11.745471 -32.322658 35.332883 -7.917974 16.619539 -26.133294 0.000000 0.000000 0.000000 -10.857750 -37.237109 -8.151122 14.945946 8.799310 -7.612718 3.514772 -0.825706 0.860415 0.091709 -1.073719 0.157597 0.000000 0.000000 0.000000 10.457601 0.647262 2.246858 4.920110 16.219090 5.132509 0.475464 5.079460 -31.258566 0.000000 0.000000 0.000000 7.290208 -0.995628 1.110794 -0.061872 -0.897319 -5.271677 7.883176 -5.871953 3.325207 -66.750114 14.746911 -37.879976 170.641799 -65.677986 164.551292 0.000000 0.000000 0.000000 6.282426 -1.868604 0.835059 -2.144272 8.791759 -9.166487 -13.948836 -2.580711 -5.980047 -41.243804 21.486320 87.389955 -137.129913 70.896264 138.186284 0.000000 0.000000 0.000000 
9.050772 64.640327 49.310638 0.000000 0.000000 0.000000 -10.045882 -37.540461 -5.063100 -54.090047 -10.088370 26.329776 53.456199 -6.385903 9.619638 15.292321 1.926816 -36.226224 -3.791467 -5.005440 3.777427 0.000000 0.000000 0.000000 -12.211556 -37.062826 -5.818098 -21.206742 -14.970876 -39.510110 68.547813 23.702343 -13.791515 -21.331041 -34.547438 34.305469 2.220332 13.825747 -27.629056 0.000000 0.000000 0.000000 -10.855936 -37.864441 -7.323980 13.018245 9.361563 -6.948406 3.588215 -0.771185 0.407342 -0.009422 -0.700240 0.159873 0.000000 0.000000 0.000000 10.201331 0.669526 1.653948 5.449170 15.417511 4.676593 0.498737 2.727643 -31.582856 0.000000 0.000000 0.000000 7.378042 -0.912471 0.639850 -0.415830 1.636806 -4.689800 8.932515 -6.914107 4.019304 -66.529164 15.039202 -40.248116 168.663967 -67.103617 162.067261 0.000000 0.000000 0.000000 6.392622 -1.810681 0.387295 -2.725561 8.827552 -9.592349 -13.199867 -1.161366 -5.698476 -41.829363 20.863067 88.291622 -136.221020 70.831883 136.729664 0.000000 0.000000 0.000000 
8.283860 66.582199 46.029732 0.000000 0.000000 0.000000 -8.131912 -37.163401 -3.135230 -54.291500 -6.618226 26.240197 48.814259 -6.491393 9.785772 17.281236 1.146863 -36.253008 -3.502319 -5.394288 4.549254 0.000000 0.000000 0.000000 -9.532876 -36.380002 -3.658976 -18.007211 -16.164169 -35.745703 65.454857 21.508443 -13.744654 -28.888360 -36.621623 30.371782 6.009133 12.416510 -27.151170 0.000000 0.000000 0.000000 -10.006989 -38.003859 -6.101127 11.634601 9.387244 -6.700499 3.604199 -0.799799 0.079392 0.011560 -0.362291 0.156870 0.000000 0.000000 0.000000 9.777546 0.685890 1.162908 5.774203 14.551897 4.330232 0.220334 0.771443 -32.262696 0.000000 0.000000 0.000000 7.313428 -0.878532 0.376720 -0.755522 3.523624 -3.738575 9.968970 -7.365498 4.030927 -67.300026 14.564492 -42.307022 167.197089 -68.829428 160.411200 0.000000 0.000000 0.000000 6.265438 -1.737980 0.145452 -3.398855 8.674897 -10.516488 -11.438448 0.249923 -4.351524 -42.679632 19.598287 88.988841 -139.111405 70.226400 138.515799 0.000000 0.000000 0.000000 
